<svg width="50" height="50" viewBox="0 0 50 50" fill="none" xmlns="http://www.w3.org/2000/svg">
<path d="M38.543 4.16797H11.4596C11.1834 4.16797 10.9184 4.27772 10.7231 4.47307C10.5277 4.66842 10.418 4.93337 10.418 5.20964V22.918H22.918V16.668L33.3346 25.0013L22.918 33.3346V27.0846H10.418V44.793C10.418 45.0692 10.5277 45.3342 10.7231 45.5295C10.9184 45.7249 11.1834 45.8346 11.4596 45.8346H38.543C38.8192 45.8346 39.0842 45.7249 39.2795 45.5295C39.4749 45.3342 39.5846 45.0692 39.5846 44.793V5.20964C39.5846 4.93337 39.4749 4.66842 39.2795 4.47307C39.0842 4.27772 38.8192 4.16797 38.543 4.16797Z" fill="black"/>
</svg>
